<?xml version="1.0" encoding="utf-8" standalone="no"?>
<!DOCTYPE svg PUBLIC "-//W3C//DTD SVG 1.1//EN"
  "http://www.w3.org/Graphics/SVG/1.1/DTD/svg11.dtd">
<svg xmlns:xlink="http://www.w3.org/1999/xlink" width="414.279453pt" height="279.367016pt" viewBox="0 0 414.279453 279.367016" xmlns="http://www.w3.org/2000/svg" version="1.1">
 <metadata>
  <rdf:RDF xmlns:dc="http://purl.org/dc/elements/1.1/" xmlns:cc="http://creativecommons.org/ns#" xmlns:rdf="http://www.w3.org/1999/02/22-rdf-syntax-ns#">
   <cc:Work>
    <dc:type rdf:resource="http://purl.org/dc/dcmitype/StillImage"/>
    <dc:date>2026-10-04T11:56:41.030922</dc:date>
    <dc:format>image/svg+xml</dc:format>
    <dc:creator>
     <cc:Agent>
      <dc:title>Matplotlib v3.11.2, https://matplotlib.org/</dc:title>
     </cc:Agent>
    </dc:creator>
   </cc:Work>
  </rdf:RDF>
 </metadata>
 <defs>
  <style type="text/css">*{stroke-linejoin: round; stroke-linecap: butt}</style>
 </defs>
 <g id="figure_1">
  <g id="patch_1">
   <path d="M 0 279.367016 
L 414.279453 279.367016 
L 414.279453 0 
L 0 0 
z
" style="fill: #ffffff"/>
  </g>
  <g id="axes_1">
   <g id="patch_2">
    <path d="M 44.379453 243.166313 
L 407.079453 243.166313 
L 407.079453 21.406313 
L 44.379453 21.406313 
z
" style="fill: #ffffff"/>
   </g>
   <g id="matplotlib.axis_1">
    <g id="xtick_1">
     <g id="line2d_1">
      <path d="M 55.277219 243.166313 
L 55.277219 21.406313 
" clip-path="url(#p85b1ea8264)" style="fill: none; stroke: #b0b0b0; stroke-opacity: 0.3; stroke-width: 0.8; stroke-linecap: square"/>
     </g>
     <g id="line2d_2">
      <defs>
       <path id="mc155a0a0b3" d="M 0 0 
L 0 3.5 
" style="stroke: #000000; stroke-width: 0.8"/>
      </defs>
      <g>
       <use xlink:href="#mc155a0a0b3" x="55.277219" y="243.166313" style="stroke: #000000; stroke-width: 0.8"/>
      </g>
     </g>
     <g id="text_1">
      <text style="font-size: 9px; font-family: 'DejaVu Sans', 'Bitstream Vera Sans', 'Computer Modern Sans Serif', 'Lucida Grande', 'Verdana', 'Geneva', 'Lucid', 'Arial', 'Helvetica', 'Avant Garde', sans-serif; text-anchor: middle" x="55.277219" y="257.004203" transform="rotate(-0 55.277219 257.004203)">0</text>
     </g>
    </g>
    <g id="xtick_2">
     <g id="line2d_3">
      <path d="M 111.163197 243.166313 
L 111.163197 21.406313 
" clip-path="url(#p85b1ea8264)" style="fill: none; stroke: #b0b0b0; stroke-opacity: 0.3; stroke-width: 0.8; stroke-linecap: square"/>
     </g>
     <g id="line2d_4">
      <g>
       <use xlink:href="#mc155a0a0b3" x="111.163197" y="243.166313" style="stroke: #000000; stroke-width: 0.8"/>
      </g>
     </g>
     <g id="text_2">
      <text style="font-size: 9px; font-family: 'DejaVu Sans', 'Bitstream Vera Sans', 'Computer Modern Sans Serif', 'Lucida Grande', 'Verdana', 'Geneva', 'Lucid', 'Arial', 'Helvetica', 'Avant Garde', sans-serif; text-anchor: middle" x="111.163197" y="257.004203" transform="rotate(-0 111.163197 257.004203)">20</text>
     </g>
    </g>
    <g id="xtick_3">
     <g id="line2d_5">
      <path d="M 167.049176 243.166313 
L 167.049176 21.406313 
" clip-path="url(#p85b1ea8264)" style="fill: none; stroke: #b0b0b0; stroke-opacity: 0.3; stroke-width: 0.8; stroke-linecap: square"/>
     </g>
     <g id="line2d_6">
      <g>
       <use xlink:href="#mc155a0a0b3" x="167.049176" y="243.166313" style="stroke: #000000; stroke-width: 0.8"/>
      </g>
     </g>
     <g id="text_3">
      <text style="font-size: 9px; font-family: 'DejaVu Sans', 'Bitstream Vera Sans', 'Computer Modern Sans Serif', 'Lucida Grande', 'Verdana', 'Geneva', 'Lucid', 'Arial', 'Helvetica', 'Avant Garde', sans-serif; text-anchor: middle" x="167.049176" y="257.004203" transform="rotate(-0 167.049176 257.004203)">40</text>
     </g>
    </g>
    <g id="xtick_4">
     <g id="line2d_7">
      <path d="M 222.935154 243.166313 
L 222.935154 21.406313 
" clip-path="url(#p85b1ea8264)" style="fill: none; stroke: #b0b0b0; stroke-opacity: 0.3; stroke-width: 0.8; stroke-linecap: square"/>
     </g>
     <g id="line2d_8">
      <g>
       <use xlink:href="#mc155a0a0b3" x="222.935154" y="243.166313" style="stroke: #000000; stroke-width: 0.8"/>
      </g>
     </g>
     <g id="text_4">
      <text style="font-size: 9px; font-family: 'DejaVu Sans', 'Bitstream Vera Sans', 'Computer Modern Sans Serif', 'Lucida Grande', 'Verdana', 'Geneva', 'Lucid', 'Arial', 'Helvetica', 'Avant Garde', sans-serif; text-anchor: middle" x="222.935154" y="257.004203" transform="rotate(-0 222.935154 257.004203)">60</text>
     </g>
    </g>
    <g id="xtick_5">
     <g id="line2d_9">
      <path d="M 278.821133 243.166313 
L 278.821133 21.406313 
" clip-path="url(#p85b1ea8264)" style="fill: none; stroke: #b0b0b0; stroke-opacity: 0.3; stroke-width: 0.8; stroke-linecap: square"/>
     </g>
     <g id="line2d_10">
      <g>
       <use xlink:href="#mc155a0a0b3" x="278.821133" y="243.166313" style="stroke: #000000; stroke-width: 0.8"/>
      </g>
     </g>
     <g id="text_5">
      <text style="font-size: 9px; font-family: 'DejaVu Sans', 'Bitstream Vera Sans', 'Computer Modern Sans Serif', 'Lucida Grande', 'Verdana', 'Geneva', 'Lucid', 'Arial', 'Helvetica', 'Avant Garde', sans-serif; text-anchor: middle" x="278.821133" y="257.004203" transform="rotate(-0 278.821133 257.004203)">80</text>
     </g>
    </g>
    <g id="xtick_6">
     <g id="line2d_11">
      <path d="M 334.707111 243.166313 
L 334.707111 21.406313 
" clip-path="url(#p85b1ea8264)" style="fill: none; stroke: #b0b0b0; stroke-opacity: 0.3; stroke-width: 0.8; stroke-linecap: square"/>
     </g>
     <g id="line2d_12">
      <g>
       <use xlink:href="#mc155a0a0b3" x="334.707111" y="243.166313" style="stroke: #000000; stroke-width: 0.8"/>
      </g>
     </g>
     <g id="text_6">
      <text style="font-size: 9px; font-family: 'DejaVu Sans', 'Bitstream Vera Sans', 'Computer Modern Sans Serif', 'Lucida Grande', 'Verdana', 'Geneva', 'Lucid', 'Arial', 'Helvetica', 'Avant Garde', sans-serif; text-anchor: middle" x="334.707111" y="257.004203" transform="rotate(-0 334.707111 257.004203)">100</text>
     </g>
    </g>
    <g id="xtick_7">
     <g id="line2d_13">
      <path d="M 390.593089 243.166313 
L 390.593089 21.406313 
" clip-path="url(#p85b1ea8264)" style="fill: none; stroke: #b0b0b0; stroke-opacity: 0.3; stroke-width: 0.8; stroke-linecap: square"/>
     </g>
     <g id="line2d_14">
      <g>
       <use xlink:href="#mc155a0a0b3" x="390.593089" y="243.166313" style="stroke: #000000; stroke-width: 0.8"/>
      </g>
     </g>
     <g id="text_7">
      <text style="font-size: 9px; font-family: 'DejaVu Sans', 'Bitstream Vera Sans', 'Computer Modern Sans Serif', 'Lucida Grande', 'Verdana', 'Geneva', 'Lucid', 'Arial', 'Helvetica', 'Avant Garde', sans-serif; text-anchor: middle" x="390.593089" y="257.004203" transform="rotate(-0 390.593089 257.004203)">120</text>
     </g>
    </g>
    <g id="text_8">
     <text style="font-size: 9px; font-family: 'DejaVu Sans', 'Bitstream Vera Sans', 'Computer Modern Sans Serif', 'Lucida Grande', 'Verdana', 'Geneva', 'Lucid', 'Arial', 'Helvetica', 'Avant Garde', sans-serif; text-anchor: middle" x="225.729453" y="270.004906" transform="rotate(-0 225.729453 270.004906)">distance (km)</text>
    </g>
   </g>
   <g id="matplotlib.axis_2">
    <g id="ytick_1">
     <g id="line2d_15">
      <path d="M 44.379453 240.027345 
L 407.079453 240.027345 
" clip-path="url(#p85b1ea8264)" style="fill: none; stroke: #b0b0b0; stroke-opacity: 0.3; stroke-width: 0.8; stroke-linecap: square"/>
     </g>
     <g id="line2d_16">
      <defs>
       <path id="m81d2acb022" d="M 0 0 
L -3.5 0 
" style="stroke: #000000; stroke-width: 0.8"/>
      </defs>
      <g>
       <use xlink:href="#m81d2acb022" x="44.379453" y="240.027345" style="stroke: #000000; stroke-width: 0.8"/>
      </g>
     </g>
     <g id="text_9">
      <text style="font-size: 9px; font-family: 'DejaVu Sans', 'Bitstream Vera Sans', 'Computer Modern Sans Serif', 'Lucida Grande', 'Verdana', 'Geneva', 'Lucid', 'Arial', 'Helvetica', 'Avant Garde', sans-serif; text-anchor: end" x="37.379453" y="243.44629" transform="rotate(-0 37.379453 243.44629)">80</text>
     </g>
    </g>
    <g id="ytick_2">
     <g id="line2d_17">
      <path d="M 44.379453 213.843665 
L 407.079453 213.843665 
" clip-path="url(#p85b1ea8264)" style="fill: none; stroke: #b0b0b0; stroke-opacity: 0.3; stroke-width: 0.8; stroke-linecap: square"/>
     </g>
     <g id="line2d_18">
      <g>
       <use xlink:href="#m81d2acb022" x="44.379453" y="213.843665" style="stroke: #000000; stroke-width: 0.8"/>
      </g>
     </g>
     <g id="text_10">
      <text style="font-size: 9px; font-family: 'DejaVu Sans', 'Bitstream Vera Sans', 'Computer Modern Sans Serif', 'Lucida Grande', 'Verdana', 'Geneva', 'Lucid', 'Arial', 'Helvetica', 'Avant Garde', sans-serif; text-anchor: end" x="37.379453" y="217.26261" transform="rotate(-0 37.379453 217.26261)">90</text>
     </g>
    </g>
    <g id="ytick_3">
     <g id="line2d_19">
      <path d="M 44.379453 187.659985 
L 407.079453 187.659985 
" clip-path="url(#p85b1ea8264)" style="fill: none; stroke: #b0b0b0; stroke-opacity: 0.3; stroke-width: 0.8; stroke-linecap: square"/>
     </g>
     <g id="line2d_20">
      <g>
       <use xlink:href="#m81d2acb022" x="44.379453" y="187.659985" style="stroke: #000000; stroke-width: 0.8"/>
      </g>
     </g>
     <g id="text_11">
      <text style="font-size: 9px; font-family: 'DejaVu Sans', 'Bitstream Vera Sans', 'Computer Modern Sans Serif', 'Lucida Grande', 'Verdana', 'Geneva', 'Lucid', 'Arial', 'Helvetica', 'Avant Garde', sans-serif; text-anchor: end" x="37.379453" y="191.07893" transform="rotate(-0 37.379453 191.07893)">100</text>
     </g>
    </g>
    <g id="ytick_4">
     <g id="line2d_21">
      <path d="M 44.379453 161.476304 
L 407.079453 161.476304 
" clip-path="url(#p85b1ea8264)" style="fill: none; stroke: #b0b0b0; stroke-opacity: 0.3; stroke-width: 0.8; stroke-linecap: square"/>
     </g>
     <g id="line2d_22">
      <g>
       <use xlink:href="#m81d2acb022" x="44.379453" y="161.476304" style="stroke: #000000; stroke-width: 0.8"/>
      </g>
     </g>
     <g id="text_12">
      <text style="font-size: 9px; font-family: 'DejaVu Sans', 'Bitstream Vera Sans', 'Computer Modern Sans Serif', 'Lucida Grande', 'Verdana', 'Geneva', 'Lucid', 'Arial', 'Helvetica', 'Avant Garde', sans-serif; text-anchor: end" x="37.379453" y="164.89525" transform="rotate(-0 37.379453 164.89525)">110</text>
     </g>
    </g>
    <g id="ytick_5">
     <g id="line2d_23">
      <path d="M 44.379453 135.292624 
L 407.079453 135.292624 
" clip-path="url(#p85b1ea8264)" style="fill: none; stroke: #b0b0b0; stroke-opacity: 0.3; stroke-width: 0.8; stroke-linecap: square"/>
     </g>
     <g id="line2d_24">
      <g>
       <use xlink:href="#m81d2acb022" x="44.379453" y="135.292624" style="stroke: #000000; stroke-width: 0.8"/>
      </g>
     </g>
     <g id="text_13">
      <text style="font-size: 9px; font-family: 'DejaVu Sans', 'Bitstream Vera Sans', 'Computer Modern Sans Serif', 'Lucida Grande', 'Verdana', 'Geneva', 'Lucid', 'Arial', 'Helvetica', 'Avant Garde', sans-serif; text-anchor: end" x="37.379453" y="138.71157" transform="rotate(-0 37.379453 138.71157)">120</text>
     </g>
    </g>
    <g id="ytick_6">
     <g id="line2d_25">
      <path d="M 44.379453 109.108944 
L 407.079453 109.108944 
" clip-path="url(#p85b1ea8264)" style="fill: none; stroke: #b0b0b0; stroke-opacity: 0.3; stroke-width: 0.8; stroke-linecap: square"/>
     </g>
     <g id="line2d_26">
      <g>
       <use xlink:href="#m81d2acb022" x="44.379453" y="109.108944" style="stroke: #000000; stroke-width: 0.8"/>
      </g>
     </g>
     <g id="text_14">
      <text style="font-size: 9px; font-family: 'DejaVu Sans', 'Bitstream Vera Sans', 'Computer Modern Sans Serif', 'Lucida Grande', 'Verdana', 'Geneva', 'Lucid', 'Arial', 'Helvetica', 'Avant Garde', sans-serif; text-anchor: end" x="37.379453" y="112.527889" transform="rotate(-0 37.379453 112.527889)">130</text>
     </g>
    </g>
    <g id="ytick_7">
     <g id="line2d_27">
      <path d="M 44.379453 82.925264 
L 407.079453 82.925264 
" clip-path="url(#p85b1ea8264)" style="fill: none; stroke: #b0b0b0; stroke-opacity: 0.3; stroke-width: 0.8; stroke-linecap: square"/>
     </g>
     <g id="line2d_28">
      <g>
       <use xlink:href="#m81d2acb022" x="44.379453" y="82.925264" style="stroke: #000000; stroke-width: 0.8"/>
      </g>
     </g>
     <g id="text_15">
      <text style="font-size: 9px; font-family: 'DejaVu Sans', 'Bitstream Vera Sans', 'Computer Modern Sans Serif', 'Lucida Grande', 'Verdana', 'Geneva', 'Lucid', 'Arial', 'Helvetica', 'Avant Garde', sans-serif; text-anchor: end" x="37.379453" y="86.344209" transform="rotate(-0 37.379453 86.344209)">140</text>
     </g>
    </g>
    <g id="ytick_8">
     <g id="line2d_29">
      <path d="M 44.379453 56.741584 
L 407.079453 56.741584 
" clip-path="url(#p85b1ea8264)" style="fill: none; stroke: #b0b0b0; stroke-opacity: 0.3; stroke-width: 0.8; stroke-linecap: square"/>
     </g>
     <g id="line2d_30">
      <g>
       <use xlink:href="#m81d2acb022" x="44.379453" y="56.741584" style="stroke: #000000; stroke-width: 0.8"/>
      </g>
     </g>
     <g id="text_16">
      <text style="font-size: 9px; font-family: 'DejaVu Sans', 'Bitstream Vera Sans', 'Computer Modern Sans Serif', 'Lucida Grande', 'Verdana', 'Geneva', 'Lucid', 'Arial', 'Helvetica', 'Avant Garde', sans-serif; text-anchor: end" x="37.379453" y="60.160529" transform="rotate(-0 37.379453 60.160529)">150</text>
     </g>
    </g>
    <g id="ytick_9">
     <g id="line2d_31">
      <path d="M 44.379453 30.557904 
L 407.079453 30.557904 
" clip-path="url(#p85b1ea8264)" style="fill: none; stroke: #b0b0b0; stroke-opacity: 0.3; stroke-width: 0.8; stroke-linecap: square"/>
     </g>
     <g id="line2d_32">
      <g>
       <use xlink:href="#m81d2acb022" x="44.379453" y="30.557904" style="stroke: #000000; stroke-width: 0.8"/>
      </g>
     </g>
     <g id="text_17">
      <text style="font-size: 9px; font-family: 'DejaVu Sans', 'Bitstream Vera Sans', 'Computer Modern Sans Serif', 'Lucida Grande', 'Verdana', 'Geneva', 'Lucid', 'Arial', 'Helvetica', 'Avant Garde', sans-serif; text-anchor: end" x="37.379453" y="33.976849" transform="rotate(-0 37.379453 33.976849)">160</text>
     </g>
    </g>
    <g id="text_18">
     <text style="font-size: 9px; font-family: 'DejaVu Sans', 'Bitstream Vera Sans', 'Computer Modern Sans Serif', 'Lucida Grande', 'Verdana', 'Geneva', 'Lucid', 'Arial', 'Helvetica', 'Avant Garde', sans-serif; text-anchor: middle" x="14.038594" y="132.286313" transform="rotate(-90 14.038594 132.286313)">path loss (dB) at 162 MHz</text>
    </g>
   </g>
   <g id="line2d_33">
    <path d="M 60.865817 217.720487 
L 66.454415 186.192194 
L 72.043012 167.749325 
L 77.63161 154.663902 
L 83.220208 144.514059 
L 88.808806 136.221033 
L 94.397404 129.20938 
L 99.986002 123.135609 
L 105.5746 117.778164 
L 111.163197 112.985766 
L 116.751795 108.650515 
L 122.340393 104.692741 
L 127.928991 101.051941 
L 133.517589 97.681087 
L 139.106187 94.542897 
L 144.694784 91.607317 
L 150.283382 88.849763 
L 155.87198 86.249872 
L 161.460578 83.790586 
L 167.049176 81.457474 
L 172.637774 79.238218 
L 178.226371 77.122222 
L 183.814969 75.100302 
L 189.403567 73.164448 
L 194.992165 71.307631 
L 200.580763 69.523649 
L 206.169361 67.807003 
L 211.757959 66.152795 
L 217.346556 64.556641 
L 222.935154 63.014605 
L 228.523752 61.523137 
L 234.11235 60.079024 
L 239.700948 58.679354 
L 245.289546 57.32147 
L 250.878143 56.002952 
L 256.466741 54.721579 
L 262.055339 53.475317 
L 267.643937 52.262293 
L 273.232535 51.08078 
L 278.821133 49.929181 
L 284.40973 48.80602 
L 289.998328 47.709926 
L 295.586926 46.639625 
L 301.175524 45.59393 
L 306.764122 44.571736 
L 312.35272 43.57201 
L 317.941318 42.593785 
L 323.529915 41.636156 
L 329.118513 40.698273 
L 334.707111 39.779338 
L 340.295709 38.878602 
L 345.884307 37.995356 
L 351.472905 37.128935 
L 357.061502 36.27871 
L 362.6501 35.444087 
L 368.238698 34.624502 
L 373.827296 33.819424 
L 379.415894 33.028349 
L 385.004492 32.250796 
L 390.593089 31.486313 
" clip-path="url(#p85b1ea8264)" style="fill: none; stroke: #1f77b4; stroke-width: 1.5; stroke-linecap: square"/>
   </g>
   <g id="line2d_34">
    <path d="M 144.0766 243.166313 
L 144.0766 21.406313 
" clip-path="url(#p85b1ea8264)" style="fill: none; stroke-dasharray: 0.8,1.32; stroke-dashoffset: 0; stroke: #1f77b4; stroke-width: 0.8"/>
   </g>
   <g id="line2d_35">
    <path d="M 60.865817 233.086313 
L 66.454415 217.322166 
L 72.043012 208.100732 
L 77.63161 197.809828 
L 83.220208 187.659985 
L 88.808806 179.366959 
L 94.397404 172.355306 
L 99.986002 166.281535 
L 105.5746 160.92409 
L 111.163197 156.131692 
L 116.751795 151.796441 
L 122.340393 147.838666 
L 127.928991 144.197867 
L 133.517589 140.827013 
L 139.106187 137.688823 
L 144.694784 134.753243 
L 150.283382 131.995689 
L 155.87198 129.395798 
L 161.460578 126.936512 
L 167.049176 124.6034 
L 172.637774 122.384144 
L 178.226371 120.268148 
L 183.814969 118.246228 
L 189.403567 116.310374 
L 194.992165 114.453556 
L 200.580763 112.669574 
L 206.169361 110.952929 
L 211.757959 109.298721 
L 217.346556 107.702567 
L 222.935154 106.160531 
L 228.523752 104.669062 
L 234.11235 103.22495 
L 239.700948 101.82528 
L 245.289546 100.467396 
L 250.878143 99.148878 
L 256.466741 97.867505 
L 262.055339 96.621243 
L 267.643937 95.408219 
L 273.232535 94.226706 
L 278.821133 93.075107 
L 284.40973 91.951946 
L 289.998328 90.855852 
L 295.586926 89.78555 
L 301.175524 88.739856 
L 306.764122 87.717662 
L 312.35272 86.717936 
L 317.941318 85.739711 
L 323.529915 84.782081 
L 329.118513 83.844199 
L 334.707111 82.925264 
L 340.295709 82.024527 
L 345.884307 81.141282 
L 351.472905 80.274861 
L 357.061502 79.424636 
L 362.6501 78.590013 
L 368.238698 77.770428 
L 373.827296 76.96535 
L 379.415894 76.174275 
L 385.004492 75.396722 
L 390.593089 74.632238 
" clip-path="url(#p85b1ea8264)" style="fill: none; stroke: #ff7f0e; stroke-width: 1.5; stroke-linecap: square"/>
   </g>
   <g id="line2d_36">
    <path d="M 188.168486 243.166313 
L 188.168486 21.406313 
" clip-path="url(#p85b1ea8264)" style="fill: none; stroke-dasharray: 0.8,1.32; stroke-dashoffset: 0; stroke: #ff7f0e; stroke-width: 0.8"/>
   </g>
   <g id="line2d_37">
    <path d="M 60.865817 233.086313 
L 66.454415 217.322166 
L 72.043012 208.100732 
L 77.63161 201.55802 
L 83.220208 196.483098 
L 88.808806 192.336586 
L 94.397404 188.830759 
L 99.986002 185.793874 
L 105.5746 183.115151 
L 111.163197 180.718952 
L 116.751795 178.551327 
L 122.340393 176.572439 
L 127.928991 174.75204 
L 133.517589 173.066613 
L 139.106187 171.497518 
L 144.694784 170.029728 
L 150.283382 168.650951 
L 155.87198 167.351005 
L 161.460578 166.121362 
L 167.049176 164.954806 
L 172.637774 163.133871 
L 178.226371 161.017875 
L 183.814969 158.995955 
L 189.403567 157.060101 
L 194.992165 155.203283 
L 200.580763 153.419301 
L 206.169361 151.702656 
L 211.757959 150.048448 
L 217.346556 148.452294 
L 222.935154 146.910258 
L 228.523752 145.418789 
L 234.11235 143.974677 
L 239.700948 142.575006 
L 245.289546 141.217123 
L 250.878143 139.898604 
L 256.466741 138.617232 
L 262.055339 137.37097 
L 267.643937 136.157946 
L 273.232535 134.976433 
L 278.821133 133.824834 
L 284.40973 132.701673 
L 289.998328 131.605579 
L 295.586926 130.535277 
L 301.175524 129.489583 
L 306.764122 128.467389 
L 312.35272 127.467663 
L 317.941318 126.489438 
L 323.529915 125.531808 
L 329.118513 124.593925 
L 334.707111 123.674991 
L 340.295709 122.774254 
L 345.884307 121.891009 
L 351.472905 121.024588 
L 357.061502 120.174363 
L 362.6501 119.33974 
L 368.238698 118.520155 
L 373.827296 117.715077 
L 379.415894 116.924001 
L 385.004492 116.146449 
L 390.593089 115.381965 
" clip-path="url(#p85b1ea8264)" style="fill: none; stroke: #2ca02c; stroke-width: 1.5; stroke-linecap: square"/>
   </g>
   <g id="line2d_38">
    <path d="M 281.145341 243.166313 
L 281.145341 21.406313 
" clip-path="url(#p85b1ea8264)" style="fill: none; stroke-dasharray: 0.8,1.32; stroke-dashoffset: 0; stroke: #2ca02c; stroke-width: 0.8"/>
   </g>
   <g id="line2d_39">
    <path d="M 60.865817 233.086313 
L 66.454415 217.322166 
L 72.043012 208.100732 
L 77.63161 201.55802 
L 83.220208 196.483098 
L 88.808806 192.336586 
L 94.397404 188.830759 
L 99.986002 185.793874 
L 105.5746 183.115151 
L 111.163197 180.718952 
L 116.751795 178.551327 
L 122.340393 176.572439 
L 127.928991 174.75204 
L 133.517589 173.066613 
L 139.106187 171.497518 
L 144.694784 170.029728 
L 150.283382 168.650951 
L 155.87198 167.351005 
L 161.460578 166.121362 
L 167.049176 164.954806 
L 172.637774 163.845178 
L 178.226371 162.78718 
L 183.814969 161.77622 
L 189.403567 160.808293 
L 194.992165 159.879884 
L 200.580763 158.987893 
L 206.169361 158.129571 
L 211.757959 157.302467 
L 217.346556 156.50439 
L 222.935154 155.733372 
L 228.523752 154.987637 
L 234.11235 154.265581 
L 239.700948 153.565746 
L 245.289546 152.886804 
L 250.878143 152.227545 
L 256.466741 151.586859 
L 262.055339 150.963728 
L 267.643937 150.357216 
L 273.232535 149.766459 
L 278.821133 149.19066 
L 284.40973 148.629079 
L 289.998328 148.081032 
L 295.586926 147.545881 
L 301.175524 147.023034 
L 306.764122 146.511937 
L 312.35272 146.012074 
L 317.941318 145.522962 
L 323.529915 145.044147 
L 329.118513 144.575205 
L 334.707111 144.115738 
L 340.295709 143.66537 
L 345.884307 143.223747 
L 351.472905 142.790537 
L 357.061502 142.365424 
L 362.6501 141.948113 
L 368.238698 141.53832 
L 373.827296 141.135781 
L 379.415894 140.740243 
L 385.004492 140.351467 
L 390.593089 139.969225 
" clip-path="url(#p85b1ea8264)" style="fill: none; stroke-dasharray: 5.55,2.4; stroke-dashoffset: 0; stroke: #000000; stroke-width: 1.5"/>
   </g>
   <g id="line2d_40">
    <path d="M 44.379453 55.513307 
L 407.079453 55.513307 
" clip-path="url(#p85b1ea8264)" style="fill: none; stroke: #ff0000; stroke-width: 0.8; stroke-linecap: square"/>
   </g>
   <g id="patch_3">
    <path d="M 44.379453 243.166313 
L 44.379453 21.406313 
" style="fill: none; stroke: #000000; stroke-width: 0.8; stroke-linejoin: miter; stroke-linecap: square"/>
   </g>
   <g id="patch_4">
    <path d="M 407.079453 243.166313 
L 407.079453 21.406313 
" style="fill: none; stroke: #000000; stroke-width: 0.8; stroke-linejoin: miter; stroke-linecap: square"/>
   </g>
   <g id="patch_5">
    <path d="M 44.379453 243.166313 
L 407.079453 243.166313 
" style="fill: none; stroke: #000000; stroke-width: 0.8; stroke-linejoin: miter; stroke-linecap: square"/>
   </g>
   <g id="patch_6">
    <path d="M 44.379453 21.406313 
L 407.079453 21.406313 
" style="fill: none; stroke: #000000; stroke-width: 0.8; stroke-linejoin: miter; stroke-linecap: square"/>
   </g>
   <g id="text_19">
    <text style="font-size: 10.8px; font-family: 'DejaVu Sans', 'Bitstream Vera Sans', 'Computer Modern Sans Serif', 'Lucida Grande', 'Verdana', 'Geneva', 'Lucid', 'Arial', 'Helvetica', 'Avant Garde', sans-serif; text-anchor: middle" x="225.729453" y="15.406313" transform="rotate(-0 225.729453 15.406313)">Path loss vs distance; dotted lines = 4/3-Earth radio horizon</text>
   </g>
   <g id="legend_1">
    <g id="patch_7">
     <path d="M 240.326328 239.666313 
L 402.179453 239.666313 
Q 403.579453 239.666313 403.579453 238.266313 
L 403.579453 186.463578 
Q 403.579453 185.063578 402.179453 185.063578 
L 240.326328 185.063578 
Q 238.926328 185.063578 238.926328 186.463578 
L 238.926328 238.266313 
Q 238.926328 239.666313 240.326328 239.666313 
z
" style="fill: #ffffff; opacity: 0.8; stroke: #cccccc; stroke-linejoin: miter"/>
    </g>
    <g id="line2d_41">
     <path d="M 241.726328 190.732484 
L 248.726328 190.732484 
L 255.726328 190.732484 
" style="fill: none; stroke: #1f77b4; stroke-width: 1.5; stroke-linecap: square"/>
    </g>
    <g id="text_20">
     <text style="font-size: 7px; font-family: 'DejaVu Sans', 'Bitstream Vera Sans', 'Computer Modern Sans Serif', 'Lucida Grande', 'Verdana', 'Geneva', 'Lucid', 'Arial', 'Helvetica', 'Avant Garde', sans-serif; text-anchor: start" x="261.326328" y="193.182484" transform="rotate(-0 261.326328 193.182484)">two-ray, h_tx=5 m, h_rx=30 m</text>
    </g>
    <g id="line2d_42">
     <path d="M 241.726328 201.233031 
L 248.726328 201.233031 
L 255.726328 201.233031 
" style="fill: none; stroke: #ff7f0e; stroke-width: 1.5; stroke-linecap: square"/>
    </g>
    <g id="text_21">
     <text style="font-size: 7px; font-family: 'DejaVu Sans', 'Bitstream Vera Sans', 'Computer Modern Sans Serif', 'Lucida Grande', 'Verdana', 'Geneva', 'Lucid', 'Arial', 'Helvetica', 'Avant Garde', sans-serif; text-anchor: start" x="261.326328" y="203.683031" transform="rotate(-0 261.326328 203.683031)">two-ray, h_tx=20 m, h_rx=50 m</text>
    </g>
    <g id="line2d_43">
     <path d="M 241.726328 211.733578 
L 248.726328 211.733578 
L 255.726328 211.733578 
" style="fill: none; stroke: #2ca02c; stroke-width: 1.5; stroke-linecap: square"/>
    </g>
    <g id="text_22">
     <text style="font-size: 7px; font-family: 'DejaVu Sans', 'Bitstream Vera Sans', 'Computer Modern Sans Serif', 'Lucida Grande', 'Verdana', 'Geneva', 'Lucid', 'Arial', 'Helvetica', 'Avant Garde', sans-serif; text-anchor: start" x="261.326328" y="214.183578" transform="rotate(-0 261.326328 214.183578)">two-ray, h_tx=30 m, h_rx=200 m</text>
    </g>
    <g id="line2d_44">
     <path d="M 241.726328 222.234125 
L 248.726328 222.234125 
L 255.726328 222.234125 
" style="fill: none; stroke-dasharray: 5.55,2.4; stroke-dashoffset: 0; stroke: #000000; stroke-width: 1.5"/>
    </g>
    <g id="text_23">
     <text style="font-size: 7px; font-family: 'DejaVu Sans', 'Bitstream Vera Sans', 'Computer Modern Sans Serif', 'Lucida Grande', 'Verdana', 'Geneva', 'Lucid', 'Arial', 'Helvetica', 'Avant Garde', sans-serif; text-anchor: start" x="261.326328" y="224.684125" transform="rotate(-0 261.326328 224.684125)">free space</text>
    </g>
    <g id="line2d_45">
     <path d="M 241.726328 232.734672 
L 248.726328 232.734672 
L 255.726328 232.734672 
" style="fill: none; stroke: #ff0000; stroke-width: 0.8; stroke-linecap: square"/>
    </g>
    <g id="text_24">
     <text style="font-size: 7px; font-family: 'DejaVu Sans', 'Bitstream Vera Sans', 'Computer Modern Sans Serif', 'Lucida Grande', 'Verdana', 'Geneva', 'Lucid', 'Arial', 'Helvetica', 'Avant Garde', sans-serif; text-anchor: start" x="261.326328" y="235.184672" transform="rotate(-0 261.326328 235.184672)">12.5 W budget to −107 dBm (max loss)</text>
    </g>
   </g>
  </g>
 </g>
 <defs>
  <clipPath id="p85b1ea8264">
   <rect x="44.379453" y="21.406313" width="362.7" height="221.76"/>
  </clipPath>
 </defs>
</svg>
